<?xml version="1.0" encoding="utf-8"?>
<!-- Generator: Adobe Illustrator 16.0.3, SVG Export Plug-In . SVG Version: 6.00 Build 0)  -->
<!DOCTYPE svg PUBLIC "-//W3C//DTD SVG 1.1//EN" "http://www.w3.org/Graphics/SVG/1.1/DTD/svg11.dtd">
<svg version="1.1" id="Layer_1" xmlns="http://www.w3.org/2000/svg" xmlns:xlink="http://www.w3.org/1999/xlink" x="0px" y="0px"
	 width="198px" height="74px" viewBox="0 0 198 74" enable-background="new 0 0 198 74" xml:space="preserve">
<path fill="#FFFFFF" d="M12.075,8.297h8.477v55.929h-8.477V8.297z"/>
<path fill="#FFFFFF" d="M97.676,8.297h19.558c7.386,0,13.437,3.298,17.043,9.425c2.757,4.715,2.984,6.833,2.984,18.542
	c0,12.564-0.629,14.767-3.138,18.699c-3.293,5.186-9.114,9.264-17.443,9.264H97.676V8.297z M106.159,56.216h10.132
	c4.782,0,8.166-1.653,10.366-4.867c1.889-2.836,2.126-4.407,2.126-14.768c0-10.062-0.237-12.497-2.517-15.562
	c-2.595-3.535-5.421-4.707-9.976-4.707h-10.132V56.216z"/>
<path fill="#FFFFFF" d="M177.76,51.735h-21.211l-4.321,12.49h-8.96l20.354-55.929h7.062l20.352,55.929h-8.956L177.76,51.735z
	 M175.325,44.198l-8.091-24.437h-0.164l-8.086,24.437H175.325z"/>
<g>
	<path fill="#FFFFFF" d="M60.077,19.481c-0.487,0.482-1.28,0.482-1.758,0l-5.036-5.044c-0.487-0.48-0.487-1.273,0-1.758l5.036-5.041
		c0.479-0.476,1.271-0.476,1.758,0l5.04,5.041c0.485,0.485,0.485,1.278,0,1.758L60.077,19.481z"/>
</g>
<g>
	<path fill="#FFFFFF" d="M34.445,21.935c0,0.098,0,0.205,0,0.298V21.935z"/>
	<path fill="#FFFFFF" d="M41.455,64.23c0.194,0,0.371,0.006,0.538,0H41.455z"/>
	<path fill="#FFFFFF" d="M75.583,14.947c0.024-0.017,0.041-0.03,0.064-0.036C75.623,14.917,75.606,14.94,75.583,14.947z"/>
	<path fill="#FFFFFF" d="M76.028,14.78L76.028,14.78L76.028,14.78z"/>
	<path fill="#FFFFFF" d="M42.49,64.164c-0.087,0.021-0.165,0.043-0.246,0.047C42.325,64.203,42.403,64.185,42.49,64.164z"/>
	<path fill="#FFFFFF" d="M34.472,22.599c0.005,0.029,0.019,0.05,0.025,0.075C34.49,22.649,34.477,22.628,34.472,22.599z"/>
	<path fill="#FFFFFF" d="M34.445,56.635c0,0.172,0,0.344,0,0.545V56.635z"/>
	<path fill="#FFFFFF" d="M75.783,64.145c0.133,0.04,0.275,0.066,0.406,0.081C76.055,64.226,75.917,64.194,75.783,64.145z"/>
	<path fill="#FFFFFF" d="M43.017,63.877c-0.091,0.096-0.216,0.172-0.331,0.23C42.799,64.059,42.91,63.973,43.017,63.877z"/>
	<path fill="#FFFFFF" d="M83.941,56.564v0.656C83.941,56.974,83.95,56.759,83.941,56.564z"/>
	<path fill="#FFFFFF" d="M76.933,64.23h-0.622C76.503,64.236,76.702,64.23,76.933,64.23z"/>
	<path fill="#FFFFFF" d="M74.998,63.008v-6.494c0-0.67,0.557-1.224,1.229-1.224h6.488c0.511,0,0.945,0.312,1.131,0.751
		c-0.059-0.146-0.14-0.288-0.288-0.429L68.319,40.367c-0.485-0.485-0.485-1.275,0-1.764l15.127-15.125
		c0.03-0.04,0.052-0.085,0.084-0.121c-0.216,0.192-0.495,0.329-0.803,0.329h-6.501c-0.672,0-1.229-0.556-1.229-1.224v-6.499
		c0-0.324,0.137-0.612,0.344-0.836c-0.025,0.022-0.052,0.033-0.073,0.052l-15.192,15.18c-0.491,0.483-1.28,0.483-1.758,0
		L43.114,15.19c-0.019-0.011-0.03-0.013-0.045-0.025c0.192,0.212,0.32,0.49,0.32,0.798v6.499c0,0.668-0.555,1.224-1.228,1.224
		h-6.493c-0.317,0-0.597-0.137-0.819-0.336c0.007,0.013,0.013,0.023,0.027,0.036l15.188,15.218c0.489,0.489,0.489,1.279,0,1.764
		L34.843,55.588c-0.142,0.143-0.224,0.289-0.283,0.43c0.194-0.424,0.614-0.728,1.109-0.728h6.493c0.673,0,1.228,0.554,1.228,1.224
		v6.494c0,0.339-0.144,0.642-0.359,0.866c0.024-0.023,0.044-0.026,0.062-0.047l15.226-15.213c0.479-0.49,1.268-0.49,1.758,0
		L75.31,63.837c0.148,0.146,0.29,0.229,0.433,0.288C75.31,63.938,74.998,63.508,74.998,63.008z"/>
	<path fill="#FFFFFF" d="M83.846,56.041c0.062,0.144,0.089,0.295,0.089,0.462C83.929,56.336,83.901,56.188,83.846,56.041z"/>
	<path fill="#FFFFFF" d="M34.529,56.109c-0.032,0.116-0.062,0.232-0.078,0.358C34.465,56.342,34.49,56.226,34.529,56.109z"/>
</g>
<g>
	<path fill="#FFFFFF" d="M42.162,14.742h-6.493c-0.671,0-1.224,0.549-1.224,1.221v6.499c0,0.668,0.553,1.224,1.224,1.224h6.493
		c0.673,0,1.228-0.556,1.228-1.224v-6.499C43.389,15.291,42.834,14.742,42.162,14.742z"/>
	<path fill="#FFFFFF" d="M82.715,14.742h-6.488c-0.672,0-1.229,0.549-1.229,1.221v6.499c0,0.668,0.557,1.224,1.229,1.224h6.501
		c0.671,0,1.214-0.556,1.214-1.224v-6.499C83.935,15.291,83.387,14.742,82.715,14.742z"/>
	<path fill="#FFFFFF" d="M42.162,55.29h-6.493c-0.671,0-1.224,0.554-1.224,1.224v6.494c0,0.672,0.553,1.223,1.224,1.223h6.493
		c0.673,0,1.228-0.551,1.228-1.223v-6.494C43.389,55.844,42.834,55.29,42.162,55.29z"/>
	<path fill="#FFFFFF" d="M82.715,55.29h-6.488c-0.672,0-1.229,0.554-1.229,1.224v6.494c0,0.672,0.557,1.223,1.229,1.223h6.501
		c0.671,0,1.214-0.551,1.214-1.223v-6.494C83.935,55.844,83.387,55.29,82.715,55.29z"/>
</g>
</svg>
