<?xml version="1.0" encoding="utf-8"?>
<!-- Generator: Adobe Illustrator 16.0.3, SVG Export Plug-In . SVG Version: 6.00 Build 0)  -->
<!DOCTYPE svg PUBLIC "-//W3C//DTD SVG 1.1//EN" "http://www.w3.org/Graphics/SVG/1.1/DTD/svg11.dtd">
<svg version="1.1" id="Layer_1" xmlns="http://www.w3.org/2000/svg" xmlns:xlink="http://www.w3.org/1999/xlink" x="0px" y="0px"
	 width="103px" height="61px" viewBox="0 0 103 61" enable-background="new 0 0 103 61" xml:space="preserve">
<path fill="#FFFFFF" d="M9,9.714h3.919V35.57H9V9.714z"/>
<path fill="#FFFFFF" d="M48.574,9.714h9.043c3.414,0,6.212,1.524,7.878,4.357c1.275,2.181,1.38,3.159,1.38,8.571
	c0,5.81-0.29,6.828-1.451,8.645c-1.521,2.397-4.213,4.283-8.063,4.283h-8.786V9.714z M52.497,31.866h4.684
	c2.211,0,3.774-0.763,4.794-2.251c0.872-1.309,0.98-2.035,0.98-6.825c0-4.651-0.108-5.777-1.162-7.195
	c-1.2-1.634-2.507-2.176-4.612-2.176h-4.684V31.866z"/>
<path fill="#FFFFFF" d="M85.597,29.797h-9.805l-1.998,5.773h-4.143l9.409-25.856h3.267l9.407,25.856h-4.139L85.597,29.797z
	 M84.472,26.311L80.73,15.015h-0.075l-3.737,11.296H84.472z"/>
<g>
	<path fill="#00B2C1" d="M31.191,14.886c-0.226,0.222-0.59,0.222-0.813,0l-2.327-2.333c-0.226-0.222-0.226-0.589,0-0.813l2.327-2.33
		c0.224-0.221,0.588-0.221,0.813,0l2.332,2.33c0.223,0.225,0.223,0.592,0,0.813L31.191,14.886z"/>
</g>
<g>
	<path fill="#00B2C1" d="M19.341,16.019c0,0.047,0,0.095,0,0.138V16.019z"/>
	<path fill="#00B2C1" d="M22.581,35.573c0.092,0,0.174,0.001,0.25,0H22.581z"/>
	<path fill="#00B2C1" d="M38.361,12.789c0.011-0.01,0.019-0.015,0.029-0.017C38.38,12.774,38.372,12.785,38.361,12.789z"/>
	<path fill="#00B2C1" d="M38.566,12.711L38.566,12.711L38.566,12.711z"/>
	<path fill="#00B2C1" d="M23.061,35.543c-0.039,0.009-0.075,0.02-0.112,0.021C22.985,35.56,23.021,35.552,23.061,35.543z"/>
	<path fill="#00B2C1" d="M19.354,16.326c0.003,0.015,0.008,0.022,0.012,0.035C19.362,16.349,19.357,16.341,19.354,16.326z"/>
	<path fill="#00B2C1" d="M19.341,32.062c0,0.078,0,0.158,0,0.251V32.062z"/>
	<path fill="#00B2C1" d="M38.452,35.532c0.062,0.02,0.128,0.031,0.189,0.038C38.579,35.57,38.514,35.556,38.452,35.532z"/>
	<path fill="#00B2C1" d="M23.305,35.409c-0.044,0.044-0.1,0.079-0.152,0.106C23.205,35.492,23.256,35.453,23.305,35.409z"/>
	<path fill="#00B2C1" d="M42.226,32.027v0.305C42.226,32.219,42.229,32.118,42.226,32.027z"/>
	<path fill="#00B2C1" d="M38.984,35.573h-0.286C38.785,35.574,38.877,35.573,38.984,35.573z"/>
	<path fill="#00B2C1" d="M38.09,35.009v-3.004c0-0.311,0.258-0.565,0.568-0.565h2.999c0.237,0,0.438,0.144,0.523,0.348
		c-0.027-0.068-0.064-0.134-0.132-0.199l-7.048-7.048c-0.223-0.225-0.223-0.589,0-0.814l6.994-6.994
		c0.016-0.019,0.025-0.037,0.04-0.055c-0.1,0.089-0.229,0.15-0.372,0.15h-3.005c-0.311,0-0.568-0.257-0.568-0.564v-3.004
		c0-0.15,0.062-0.284,0.159-0.388c-0.012,0.011-0.023,0.015-0.034,0.025l-7.023,7.017c-0.228,0.223-0.59,0.223-0.813,0l-7.028-7.012
		c-0.009-0.005-0.015-0.006-0.021-0.013c0.09,0.1,0.148,0.227,0.148,0.37v3.004c0,0.308-0.257,0.564-0.567,0.564h-3.001
		c-0.146,0-0.276-0.062-0.379-0.154c0.003,0.005,0.005,0.009,0.012,0.016l7.023,7.037c0.225,0.226,0.225,0.59,0,0.814l-7.039,7.037
		c-0.064,0.066-0.103,0.132-0.131,0.199c0.091-0.197,0.284-0.337,0.514-0.337h3.001c0.311,0,0.567,0.255,0.567,0.565v3.004
		c0,0.155-0.066,0.296-0.166,0.398c0.011-0.011,0.021-0.012,0.028-0.022l7.039-7.031c0.224-0.227,0.586-0.227,0.813,0l7.042,7.038
		c0.069,0.067,0.136,0.104,0.201,0.133C38.233,35.438,38.09,35.238,38.09,35.009z"/>
	<path fill="#00B2C1" d="M42.181,31.787c0.028,0.064,0.041,0.138,0.041,0.213C42.218,31.925,42.206,31.854,42.181,31.787z"/>
	<path fill="#00B2C1" d="M19.38,31.818c-0.014,0.052-0.026,0.108-0.035,0.165C19.351,31.927,19.362,31.87,19.38,31.818z"/>
</g>
<g>
	<path fill="#FFFFFF" d="M22.909,12.693h-3.001c-0.311,0-0.567,0.254-0.567,0.565v3.004c0,0.308,0.257,0.564,0.567,0.564h3.001
		c0.311,0,0.567-0.257,0.567-0.564v-3.004C23.477,12.947,23.22,12.693,22.909,12.693z"/>
	<path fill="#FFFFFF" d="M41.657,12.693h-2.999c-0.311,0-0.568,0.254-0.568,0.565v3.004c0,0.308,0.258,0.564,0.568,0.564h3.005
		c0.311,0,0.562-0.257,0.562-0.564v-3.004C42.222,12.947,41.968,12.693,41.657,12.693z"/>
	<path fill="#FFFFFF" d="M22.909,31.439h-3.001c-0.311,0-0.567,0.255-0.567,0.565v3.004c0,0.311,0.257,0.564,0.567,0.564h3.001
		c0.311,0,0.567-0.254,0.567-0.564v-3.004C23.477,31.694,23.22,31.439,22.909,31.439z"/>
	<path fill="#FFFFFF" d="M41.657,31.439h-2.999c-0.311,0-0.568,0.255-0.568,0.565v3.004c0,0.311,0.258,0.564,0.568,0.564h3.005
		c0.311,0,0.562-0.254,0.562-0.564v-3.004C42.222,31.694,41.968,31.439,41.657,31.439z"/>
</g>
<g>
	<path fill="#FFFFFF" d="M16.558,47.962c-0.083,0.504-0.233,0.956-0.451,1.351c-0.217,0.396-0.483,0.726-0.798,0.989
		c-0.316,0.265-0.678,0.465-1.088,0.601c-0.408,0.136-0.844,0.203-1.306,0.203c-0.356,0-0.691-0.04-1.007-0.122
		S11.29,50.776,11,50.608c-0.289-0.168-0.546-0.365-0.771-0.589c-0.318-0.328-0.547-0.675-0.687-1.044
		c-0.142-0.37-0.228-0.771-0.26-1.203c-0.033-0.432-0.05-1.052-0.05-1.859c0-0.622,0.009-1.116,0.026-1.479
		c0.016-0.364,0.052-0.699,0.111-1.002c0.058-0.305,0.154-0.588,0.287-0.852c0.133-0.265,0.324-0.522,0.571-0.775
		c0.354-0.354,0.76-0.625,1.212-0.81c0.453-0.184,0.945-0.276,1.474-0.276c0.956,0,1.76,0.271,2.408,0.814
		c0.646,0.541,1.058,1.318,1.234,2.329h-1.584c-0.121-0.536-0.357-0.961-0.71-1.277c-0.354-0.314-0.804-0.472-1.349-0.472
		c-0.3,0-0.582,0.053-0.846,0.161c-0.264,0.106-0.486,0.259-0.669,0.455c-0.136,0.148-0.241,0.298-0.316,0.45
		s-0.136,0.354-0.181,0.603c-0.048,0.249-0.08,0.531-0.096,0.842c-0.017,0.313-0.024,0.742-0.024,1.289
		c0,0.54,0.008,0.966,0.024,1.276c0.016,0.311,0.048,0.59,0.096,0.843c0.045,0.251,0.105,0.451,0.181,0.598s0.181,0.301,0.316,0.465
		c0.183,0.192,0.405,0.343,0.669,0.452c0.264,0.108,0.546,0.164,0.846,0.164c0.368,0,0.693-0.073,0.973-0.217
		c0.281-0.144,0.515-0.35,0.701-0.615c0.188-0.267,0.32-0.571,0.399-0.917H16.558z"/>
	<path fill="#FFFFFF" d="M28.687,45.909c0,0.808-0.015,1.426-0.044,1.854c-0.031,0.426-0.117,0.827-0.259,1.204
		c-0.14,0.376-0.364,0.724-0.672,1.045c-0.733,0.729-1.634,1.093-2.698,1.093c-1.065,0-1.961-0.361-2.686-1.086
		c-0.316-0.328-0.545-0.675-0.687-1.044c-0.14-0.37-0.226-0.771-0.259-1.203c-0.032-0.432-0.049-1.052-0.049-1.859
		c0-0.622,0.01-1.116,0.024-1.479c0.018-0.364,0.055-0.699,0.112-1.002c0.06-0.305,0.155-0.588,0.288-0.852
		c0.133-0.265,0.322-0.522,0.569-0.775c0.725-0.725,1.62-1.086,2.686-1.086c1.064,0,1.965,0.361,2.698,1.084
		c0.313,0.327,0.54,0.678,0.678,1.049s0.222,0.772,0.253,1.202C28.672,44.481,28.687,45.101,28.687,45.909z M27.137,45.913
		c0-1.019-0.037-1.734-0.114-2.149c-0.076-0.414-0.24-0.755-0.489-1.021c-0.176-0.19-0.401-0.343-0.674-0.457
		c-0.273-0.113-0.557-0.172-0.846-0.172c-0.294,0-0.578,0.059-0.851,0.172c-0.274,0.114-0.5,0.267-0.678,0.457
		c-0.248,0.275-0.408,0.618-0.485,1.028c-0.079,0.411-0.118,1.124-0.118,2.143c0,0.54,0.011,0.973,0.026,1.297
		c0.017,0.323,0.047,0.607,0.094,0.851c0.046,0.241,0.104,0.431,0.168,0.565c0.065,0.137,0.169,0.288,0.315,0.456
		c0.188,0.195,0.415,0.348,0.685,0.462c0.269,0.111,0.55,0.167,0.844,0.167c0.617,0,1.123-0.21,1.52-0.629
		c0.168-0.184,0.297-0.389,0.385-0.623c0.086-0.233,0.146-0.551,0.175-0.952C27.123,47.106,27.137,46.575,27.137,45.913z"/>
	<path fill="#FFFFFF" d="M41.515,51.022h-1.809l-2.151-4.297h-1.934v4.297h-1.563V40.802h3.972c0.626,0,1.181,0.128,1.666,0.383
		c0.484,0.255,0.854,0.609,1.117,1.061c0.258,0.452,0.387,0.967,0.387,1.547c0,0.7-0.186,1.287-0.563,1.757
		c-0.376,0.47-0.866,0.79-1.469,0.958L41.515,51.022z M39.651,43.806c0-0.499-0.156-0.893-0.472-1.179
		c-0.316-0.286-0.738-0.429-1.268-0.429h-2.291v3.194h2.291c0.524,0,0.944-0.14,1.262-0.425
		C39.491,44.682,39.651,44.295,39.651,43.806z"/>
	<path fill="#FFFFFF" d="M53.818,45.843v0.511c0,0.551-0.021,1.033-0.063,1.443c-0.041,0.411-0.139,0.815-0.29,1.214
		c-0.152,0.396-0.381,0.747-0.684,1.051c-0.641,0.64-1.523,0.961-2.646,0.961h-3.593V40.802h3.593c1.122,0,2.005,0.321,2.646,0.961
		c0.303,0.304,0.531,0.646,0.684,1.022c0.151,0.379,0.249,0.765,0.29,1.157c0.043,0.393,0.063,0.853,0.063,1.381V45.843z
		 M52.271,45.846c0-0.589-0.01-1.042-0.028-1.363c-0.02-0.318-0.068-0.619-0.15-0.898c-0.082-0.281-0.206-0.512-0.369-0.693
		c-0.422-0.463-0.999-0.692-1.738-0.692h-1.879v7.429h1.879c0.743,0,1.322-0.229,1.738-0.687c0.244-0.266,0.395-0.628,0.455-1.086
		C52.238,47.399,52.271,46.728,52.271,45.846z"/>
	<path fill="#FFFFFF" d="M66.178,45.909c0,0.808-0.015,1.426-0.046,1.854c-0.028,0.426-0.115,0.827-0.257,1.204
		c-0.141,0.376-0.363,0.724-0.672,1.045c-0.733,0.729-1.634,1.093-2.698,1.093c-1.065,0-1.961-0.361-2.685-1.086
		c-0.317-0.328-0.547-0.675-0.688-1.044c-0.14-0.37-0.226-0.771-0.259-1.203c-0.032-0.432-0.05-1.052-0.05-1.859
		c0-0.622,0.01-1.116,0.027-1.479c0.016-0.364,0.054-0.699,0.111-1.002c0.059-0.305,0.154-0.588,0.287-0.852
		c0.135-0.265,0.322-0.522,0.57-0.775c0.724-0.725,1.619-1.086,2.685-1.086c1.064,0,1.965,0.361,2.698,1.084
		c0.313,0.327,0.541,0.678,0.678,1.049c0.139,0.371,0.223,0.772,0.251,1.202C66.163,44.481,66.178,45.101,66.178,45.909z
		 M64.628,45.913c0-1.019-0.037-1.734-0.114-2.149c-0.076-0.414-0.24-0.755-0.487-1.021c-0.179-0.19-0.401-0.343-0.676-0.457
		c-0.273-0.113-0.557-0.172-0.846-0.172c-0.294,0-0.578,0.059-0.851,0.172c-0.274,0.114-0.501,0.267-0.678,0.457
		c-0.247,0.275-0.409,0.618-0.484,1.028c-0.078,0.411-0.117,1.124-0.117,2.143c0,0.54,0.008,0.973,0.025,1.297
		c0.017,0.323,0.046,0.607,0.093,0.851c0.047,0.241,0.104,0.431,0.168,0.565c0.064,0.137,0.171,0.288,0.315,0.456
		c0.186,0.195,0.416,0.348,0.686,0.462c0.268,0.111,0.549,0.167,0.843,0.167c0.615,0,1.124-0.21,1.521-0.629
		c0.168-0.184,0.296-0.389,0.382-0.623c0.089-0.233,0.145-0.551,0.176-0.952C64.615,47.106,64.628,46.575,64.628,45.913z"/>
	<path fill="#FFFFFF" d="M78.782,48.134c0,0.617-0.128,1.142-0.389,1.574c-0.261,0.432-0.625,0.758-1.095,0.98
		c-0.471,0.222-1.007,0.334-1.61,0.334h-4.141V40.802h3.987c0.617,0,1.161,0.114,1.63,0.34c0.47,0.228,0.829,0.553,1.082,0.975
		c0.25,0.424,0.374,0.918,0.374,1.482c0,0.351-0.063,0.673-0.192,0.972c-0.128,0.297-0.299,0.547-0.51,0.748
		c-0.209,0.205-0.435,0.353-0.68,0.446c0.44,0.168,0.807,0.456,1.101,0.863C78.635,47.033,78.782,47.536,78.782,48.134z
		 M77.071,43.659c0-0.304-0.065-0.565-0.206-0.788c-0.137-0.22-0.33-0.388-0.581-0.502c-0.249-0.114-0.543-0.171-0.881-0.171h-2.291
		v2.922h2.291c0.515,0,0.921-0.128,1.221-0.385C76.922,44.479,77.071,44.12,77.071,43.659z M77.226,48.064
		c0-0.313-0.065-0.585-0.196-0.813c-0.13-0.229-0.322-0.408-0.576-0.54c-0.255-0.13-0.557-0.196-0.901-0.196h-2.439v3.112h2.439
		c0.349,0,0.65-0.067,0.904-0.198c0.251-0.135,0.443-0.317,0.573-0.552C77.16,48.644,77.226,48.372,77.226,48.064z"/>
	<path fill="#FFFFFF" d="M91.688,51.022h-1.651l-0.7-2.055h-4.035l-0.698,2.055h-1.654l3.747-10.221h1.248L91.688,51.022z
		 M88.9,47.65l-1.546-4.535l-1.593,4.535H88.9z"/>
</g>
</svg>
