<?xml version="1.0" encoding="utf-8"?>
<!-- Generator: Adobe Illustrator 16.0.3, SVG Export Plug-In . SVG Version: 6.00 Build 0)  -->
<!DOCTYPE svg PUBLIC "-//W3C//DTD SVG 1.1//EN" "http://www.w3.org/Graphics/SVG/1.1/DTD/svg11.dtd">
<svg version="1.1" id="Layer_1" xmlns="http://www.w3.org/2000/svg" xmlns:xlink="http://www.w3.org/1999/xlink" x="0px" y="0px"
	 width="103px" height="61px" viewBox="0 0 103 61" enable-background="new 0 0 103 61" xml:space="preserve">
<path fill="#FFFFFF" d="M9,9.714h3.919V35.57H9V9.714z"/>
<path fill="#FFFFFF" d="M48.574,9.714h9.043c3.414,0,6.212,1.524,7.878,4.357c1.275,2.181,1.38,3.159,1.38,8.571
	c0,5.81-0.29,6.828-1.451,8.645c-1.521,2.397-4.213,4.283-8.063,4.283h-8.786V9.714z M52.497,31.866h4.684
	c2.211,0,3.774-0.763,4.794-2.251c0.872-1.309,0.98-2.035,0.98-6.825c0-4.651-0.108-5.777-1.162-7.195
	c-1.2-1.634-2.507-2.176-4.612-2.176h-4.684V31.866z"/>
<path fill="#FFFFFF" d="M85.597,29.797h-9.805l-1.998,5.773h-4.143l9.409-25.856h3.267l9.407,25.856h-4.139L85.597,29.797z
	 M84.472,26.311L80.73,15.015h-0.075l-3.737,11.296H84.472z"/>
<g>
	<path fill="#00B2C1" d="M31.191,14.886c-0.226,0.222-0.59,0.222-0.813,0l-2.327-2.333c-0.226-0.222-0.226-0.589,0-0.813l2.327-2.33
		c0.224-0.221,0.588-0.221,0.813,0l2.332,2.33c0.223,0.225,0.223,0.592,0,0.813L31.191,14.886z"/>
</g>
<g>
	<path fill="#00B2C1" d="M19.341,16.019c0,0.047,0,0.095,0,0.138V16.019z"/>
	<path fill="#00B2C1" d="M22.581,35.573c0.092,0,0.174,0.001,0.25,0H22.581z"/>
	<path fill="#00B2C1" d="M38.361,12.789c0.011-0.01,0.019-0.015,0.029-0.017C38.38,12.774,38.372,12.785,38.361,12.789z"/>
	<path fill="#00B2C1" d="M38.566,12.711L38.566,12.711L38.566,12.711z"/>
	<path fill="#00B2C1" d="M23.061,35.543c-0.039,0.009-0.075,0.02-0.112,0.021C22.985,35.56,23.021,35.552,23.061,35.543z"/>
	<path fill="#00B2C1" d="M19.354,16.326c0.003,0.015,0.008,0.022,0.012,0.035C19.362,16.349,19.357,16.341,19.354,16.326z"/>
	<path fill="#00B2C1" d="M19.341,32.062c0,0.078,0,0.158,0,0.251V32.062z"/>
	<path fill="#00B2C1" d="M38.452,35.532c0.062,0.02,0.128,0.031,0.189,0.038C38.579,35.57,38.514,35.556,38.452,35.532z"/>
	<path fill="#00B2C1" d="M23.305,35.409c-0.044,0.044-0.1,0.079-0.152,0.106C23.205,35.492,23.256,35.453,23.305,35.409z"/>
	<path fill="#00B2C1" d="M42.226,32.027v0.305C42.226,32.219,42.229,32.118,42.226,32.027z"/>
	<path fill="#00B2C1" d="M38.984,35.573h-0.286C38.785,35.574,38.877,35.573,38.984,35.573z"/>
	<path fill="#00B2C1" d="M38.09,35.009v-3.004c0-0.311,0.258-0.565,0.568-0.565h2.999c0.237,0,0.438,0.144,0.523,0.348
		c-0.027-0.068-0.064-0.134-0.132-0.199l-7.048-7.048c-0.223-0.225-0.223-0.589,0-0.814l6.994-6.994
		c0.016-0.019,0.025-0.037,0.04-0.055c-0.1,0.089-0.229,0.15-0.372,0.15h-3.005c-0.311,0-0.568-0.257-0.568-0.564v-3.004
		c0-0.15,0.062-0.284,0.159-0.388c-0.012,0.011-0.023,0.015-0.034,0.025l-7.023,7.017c-0.228,0.223-0.59,0.223-0.813,0l-7.028-7.012
		c-0.009-0.005-0.015-0.006-0.021-0.013c0.09,0.1,0.148,0.227,0.148,0.37v3.004c0,0.308-0.257,0.564-0.567,0.564h-3.001
		c-0.146,0-0.276-0.062-0.379-0.154c0.003,0.005,0.005,0.009,0.012,0.016l7.023,7.037c0.225,0.226,0.225,0.59,0,0.814l-7.039,7.037
		c-0.064,0.066-0.103,0.132-0.131,0.199c0.091-0.197,0.284-0.337,0.514-0.337h3.001c0.311,0,0.567,0.255,0.567,0.565v3.004
		c0,0.155-0.066,0.296-0.166,0.398c0.011-0.011,0.021-0.012,0.028-0.022l7.039-7.031c0.224-0.227,0.586-0.227,0.813,0l7.042,7.038
		c0.069,0.067,0.136,0.104,0.201,0.133C38.233,35.438,38.09,35.238,38.09,35.009z"/>
	<path fill="#00B2C1" d="M42.181,31.787c0.028,0.064,0.041,0.138,0.041,0.213C42.218,31.925,42.206,31.854,42.181,31.787z"/>
	<path fill="#00B2C1" d="M19.38,31.818c-0.014,0.052-0.026,0.108-0.035,0.165C19.351,31.927,19.362,31.87,19.38,31.818z"/>
</g>
<g>
	<path fill="#FFFFFF" d="M22.909,12.693h-3.001c-0.311,0-0.567,0.254-0.567,0.565v3.004c0,0.308,0.257,0.564,0.567,0.564h3.001
		c0.311,0,0.567-0.257,0.567-0.564v-3.004C23.477,12.947,23.22,12.693,22.909,12.693z"/>
	<path fill="#FFFFFF" d="M41.657,12.693h-2.999c-0.311,0-0.568,0.254-0.568,0.565v3.004c0,0.308,0.258,0.564,0.568,0.564h3.005
		c0.311,0,0.562-0.257,0.562-0.564v-3.004C42.222,12.947,41.968,12.693,41.657,12.693z"/>
	<path fill="#FFFFFF" d="M22.909,31.439h-3.001c-0.311,0-0.567,0.255-0.567,0.565v3.004c0,0.311,0.257,0.564,0.567,0.564h3.001
		c0.311,0,0.567-0.254,0.567-0.564v-3.004C23.477,31.694,23.22,31.439,22.909,31.439z"/>
	<path fill="#FFFFFF" d="M41.657,31.439h-2.999c-0.311,0-0.568,0.255-0.568,0.565v3.004c0,0.311,0.258,0.564,0.568,0.564h3.005
		c0.311,0,0.562-0.254,0.562-0.564v-3.004C42.222,31.694,41.968,31.439,41.657,31.439z"/>
</g>
</svg>
