<?xml version="1.0" encoding="utf-8"?>
<!-- Generator: Adobe Illustrator 16.0.3, SVG Export Plug-In . SVG Version: 6.00 Build 0)  -->
<!DOCTYPE svg PUBLIC "-//W3C//DTD SVG 1.1//EN" "http://www.w3.org/Graphics/SVG/1.1/DTD/svg11.dtd">
<svg version="1.1" id="Layer_1" xmlns="http://www.w3.org/2000/svg" xmlns:xlink="http://www.w3.org/1999/xlink" x="0px" y="0px"
	 width="206px" height="110px" viewBox="0 0 206 110" enable-background="new 0 0 206 110" xml:space="preserve">
<path fill="#FFFFFF" d="M12.075,8.297h8.477v55.929h-8.477V8.297z"/>
<path fill="#FFFFFF" d="M97.676,8.297h19.558c7.386,0,13.437,3.298,17.043,9.425c2.757,4.715,2.984,6.833,2.984,18.542
	c0,12.564-0.629,14.767-3.138,18.699c-3.293,5.186-9.114,9.264-17.443,9.264H97.676V8.297z M106.159,56.216h10.132
	c4.782,0,8.166-1.653,10.366-4.867c1.889-2.836,2.126-4.407,2.126-14.768c0-10.062-0.237-12.497-2.517-15.562
	c-2.595-3.535-5.421-4.707-9.976-4.707h-10.132V56.216z"/>
<path fill="#FFFFFF" d="M177.76,51.735h-21.211l-4.321,12.49h-8.96l20.354-55.929h7.062l20.352,55.929h-8.956L177.76,51.735z
	 M175.325,44.198l-8.091-24.437h-0.164l-8.086,24.437H175.325z"/>
<g>
	<path fill="#FFFFFF" d="M60.077,19.481c-0.487,0.482-1.28,0.482-1.758,0l-5.036-5.044c-0.487-0.48-0.487-1.273,0-1.758l5.036-5.041
		c0.479-0.476,1.271-0.476,1.758,0l5.04,5.041c0.485,0.485,0.485,1.278,0,1.758L60.077,19.481z"/>
</g>
<g>
	<path fill="#FFFFFF" d="M34.445,21.935c0,0.098,0,0.205,0,0.298V21.935z"/>
	<path fill="#FFFFFF" d="M41.455,64.23c0.194,0,0.371,0.006,0.538,0H41.455z"/>
	<path fill="#FFFFFF" d="M75.583,14.947c0.024-0.017,0.041-0.03,0.064-0.036C75.623,14.917,75.606,14.94,75.583,14.947z"/>
	<path fill="#FFFFFF" d="M76.028,14.78L76.028,14.78L76.028,14.78z"/>
	<path fill="#FFFFFF" d="M42.49,64.164c-0.087,0.021-0.165,0.043-0.246,0.047C42.325,64.203,42.403,64.185,42.49,64.164z"/>
	<path fill="#FFFFFF" d="M34.472,22.599c0.005,0.029,0.019,0.05,0.025,0.075C34.49,22.649,34.477,22.628,34.472,22.599z"/>
	<path fill="#FFFFFF" d="M34.445,56.635c0,0.172,0,0.344,0,0.545V56.635z"/>
	<path fill="#FFFFFF" d="M75.783,64.145c0.133,0.04,0.275,0.066,0.406,0.081C76.055,64.226,75.917,64.194,75.783,64.145z"/>
	<path fill="#FFFFFF" d="M43.017,63.877c-0.091,0.096-0.216,0.172-0.331,0.23C42.799,64.059,42.91,63.973,43.017,63.877z"/>
	<path fill="#FFFFFF" d="M83.941,56.564v0.656C83.941,56.974,83.95,56.759,83.941,56.564z"/>
	<path fill="#FFFFFF" d="M76.933,64.23h-0.622C76.503,64.236,76.702,64.23,76.933,64.23z"/>
	<path fill="#FFFFFF" d="M74.998,63.008v-6.494c0-0.67,0.557-1.224,1.229-1.224h6.488c0.511,0,0.945,0.312,1.131,0.751
		c-0.059-0.146-0.14-0.288-0.288-0.429L68.319,40.367c-0.485-0.485-0.485-1.275,0-1.764l15.127-15.125
		c0.03-0.04,0.052-0.085,0.084-0.121c-0.216,0.192-0.495,0.329-0.803,0.329h-6.501c-0.672,0-1.229-0.556-1.229-1.224v-6.499
		c0-0.324,0.137-0.612,0.344-0.836c-0.025,0.022-0.052,0.033-0.073,0.052l-15.192,15.18c-0.491,0.483-1.28,0.483-1.758,0
		L43.114,15.19c-0.019-0.011-0.03-0.013-0.045-0.025c0.192,0.212,0.32,0.49,0.32,0.798v6.499c0,0.668-0.555,1.224-1.228,1.224
		h-6.493c-0.317,0-0.597-0.137-0.819-0.336c0.007,0.013,0.013,0.023,0.027,0.036l15.188,15.218c0.489,0.489,0.489,1.279,0,1.764
		L34.843,55.588c-0.142,0.143-0.224,0.289-0.283,0.43c0.194-0.424,0.614-0.728,1.109-0.728h6.493c0.673,0,1.228,0.554,1.228,1.224
		v6.494c0,0.339-0.144,0.642-0.359,0.866c0.024-0.023,0.044-0.026,0.062-0.047l15.226-15.213c0.479-0.49,1.268-0.49,1.758,0
		L75.31,63.837c0.148,0.146,0.29,0.229,0.433,0.288C75.31,63.938,74.998,63.508,74.998,63.008z"/>
	<path fill="#FFFFFF" d="M83.846,56.041c0.062,0.144,0.089,0.295,0.089,0.462C83.929,56.336,83.901,56.188,83.846,56.041z"/>
	<path fill="#FFFFFF" d="M34.529,56.109c-0.032,0.116-0.062,0.232-0.078,0.358C34.465,56.342,34.49,56.226,34.529,56.109z"/>
</g>
<g>
	<path fill="#FFFFFF" d="M42.162,14.742h-6.493c-0.671,0-1.224,0.549-1.224,1.221v6.499c0,0.668,0.553,1.224,1.224,1.224h6.493
		c0.673,0,1.228-0.556,1.228-1.224v-6.499C43.389,15.291,42.834,14.742,42.162,14.742z"/>
	<path fill="#FFFFFF" d="M82.715,14.742h-6.488c-0.672,0-1.229,0.549-1.229,1.221v6.499c0,0.668,0.557,1.224,1.229,1.224h6.501
		c0.671,0,1.214-0.556,1.214-1.224v-6.499C83.935,15.291,83.387,14.742,82.715,14.742z"/>
	<path fill="#FFFFFF" d="M42.162,55.29h-6.493c-0.671,0-1.224,0.554-1.224,1.224v6.494c0,0.672,0.553,1.223,1.224,1.223h6.493
		c0.673,0,1.228-0.551,1.228-1.223v-6.494C43.389,55.844,42.834,55.29,42.162,55.29z"/>
	<path fill="#FFFFFF" d="M82.715,55.29h-6.488c-0.672,0-1.229,0.554-1.229,1.224v6.494c0,0.672,0.557,1.223,1.229,1.223h6.501
		c0.671,0,1.214-0.551,1.214-1.223v-6.494C83.935,55.844,83.387,55.29,82.715,55.29z"/>
</g>
<g>
	<path fill="#FFFFFF" d="M28.422,91.029c-0.182,1.093-0.505,2.067-0.974,2.921c-0.471,0.857-1.045,1.569-1.729,2.142
		c-0.683,0.57-1.465,1.004-2.35,1.298s-1.829,0.44-2.831,0.44c-0.767,0-1.491-0.089-2.172-0.266
		c-0.683-0.176-1.34-0.447-1.966-0.812c-0.627-0.363-1.184-0.787-1.669-1.272c-0.688-0.707-1.184-1.461-1.485-2.259
		c-0.302-0.799-0.491-1.664-0.562-2.6c-0.071-0.935-0.104-2.277-0.104-4.025c0-1.344,0.021-2.41,0.054-3.199
		c0.035-0.789,0.118-1.511,0.243-2.168c0.126-0.657,0.334-1.271,0.622-1.842c0.288-0.572,0.696-1.129,1.232-1.675
		c0.769-0.769,1.642-1.353,2.624-1.752c0.979-0.399,2.042-0.599,3.183-0.599c2.074,0,3.81,0.589,5.209,1.762
		c1.401,1.172,2.292,2.852,2.674,5.038h-3.426c-0.263-1.16-0.772-2.081-1.536-2.763c-0.764-0.68-1.738-1.02-2.922-1.02
		c-0.646,0-1.253,0.115-1.824,0.349c-0.57,0.229-1.056,0.558-1.45,0.982c-0.293,0.323-0.521,0.647-0.683,0.976
		c-0.16,0.328-0.293,0.763-0.393,1.304c-0.101,0.538-0.168,1.147-0.202,1.821c-0.036,0.676-0.057,1.604-0.057,2.785
		c0,1.17,0.021,2.092,0.057,2.762c0.034,0.672,0.101,1.278,0.202,1.824c0.1,0.543,0.233,0.976,0.393,1.295
		c0.162,0.314,0.389,0.65,0.683,1.005c0.395,0.414,0.88,0.74,1.45,0.975c0.571,0.237,1.178,0.356,1.824,0.356
		c0.799,0,1.5-0.156,2.107-0.471c0.607-0.31,1.113-0.755,1.517-1.33c0.405-0.574,0.691-1.236,0.863-1.982H28.422z"/>
	<path fill="#FFFFFF" d="M54.656,86.588c0,1.748-0.03,3.085-0.096,4.01c-0.065,0.922-0.251,1.791-0.555,2.605
		c-0.303,0.814-0.789,1.569-1.457,2.264c-1.586,1.574-3.532,2.363-5.837,2.363c-2.303,0-4.24-0.784-5.807-2.351
		c-0.688-0.707-1.183-1.461-1.487-2.259c-0.302-0.799-0.489-1.664-0.56-2.6c-0.071-0.935-0.104-2.277-0.104-4.025
		c0-1.344,0.02-2.41,0.054-3.199c0.036-0.789,0.118-1.511,0.243-2.168c0.126-0.657,0.334-1.271,0.622-1.842
		c0.289-0.572,0.696-1.129,1.232-1.675c1.566-1.567,3.504-2.351,5.807-2.351c2.305,0,4.25,0.783,5.837,2.348
		c0.678,0.707,1.168,1.462,1.467,2.266c0.297,0.805,0.479,1.671,0.544,2.602C54.626,83.504,54.656,84.843,54.656,86.588z
		 M51.305,86.596c0-2.201-0.079-3.748-0.246-4.646c-0.167-0.897-0.52-1.633-1.056-2.209c-0.384-0.414-0.87-0.742-1.461-0.99
		c-0.59-0.248-1.202-0.371-1.83-0.371c-0.637,0-1.248,0.123-1.837,0.371c-0.594,0.248-1.083,0.576-1.467,0.99
		c-0.536,0.596-0.884,1.336-1.052,2.224c-0.165,0.89-0.253,2.431-0.253,4.632c0,1.17,0.021,2.104,0.056,2.808
		c0.035,0.698,0.103,1.313,0.204,1.839c0.1,0.523,0.221,0.933,0.364,1.226c0.142,0.293,0.367,0.618,0.681,0.983
		c0.404,0.424,0.9,0.756,1.48,0.998c0.582,0.242,1.187,0.363,1.824,0.363c1.335,0,2.431-0.455,3.291-1.361
		c0.364-0.395,0.641-0.842,0.83-1.348c0.186-0.505,0.312-1.189,0.377-2.06C51.276,89.178,51.305,88.028,51.305,86.596z"/>
	<path fill="#FFFFFF" d="M82.406,97.647h-3.912l-4.655-9.294h-4.185v9.294h-3.38V75.544h8.592c1.354,0,2.558,0.274,3.603,0.825
		c1.046,0.551,1.852,1.316,2.416,2.295c0.562,0.975,0.838,2.09,0.838,3.345c0,1.517-0.402,2.785-1.217,3.8
		c-0.812,1.017-1.875,1.71-3.18,2.073L82.406,97.647z M78.373,82.039c0-1.078-0.339-1.93-1.02-2.549
		c-0.683-0.619-1.598-0.93-2.74-0.93h-4.958v6.912h4.958c1.131,0,2.042-0.305,2.729-0.922
		C78.029,83.934,78.373,83.098,78.373,82.039z"/>
	<path fill="#FFFFFF" d="M109.019,86.444v1.106c0,1.193-0.047,2.234-0.136,3.123c-0.092,0.889-0.299,1.764-0.628,2.623
		c-0.328,0.858-0.824,1.617-1.479,2.274c-1.385,1.384-3.297,2.076-5.721,2.076h-7.772V75.544h7.772c2.424,0,4.336,0.692,5.721,2.076
		c0.655,0.657,1.151,1.396,1.479,2.214c0.329,0.818,0.536,1.652,0.628,2.502c0.089,0.849,0.136,1.844,0.136,2.985V86.444z
		 M105.667,86.451c0-1.273-0.02-2.254-0.059-2.946c-0.042-0.692-0.146-1.339-0.324-1.944c-0.177-0.607-0.444-1.107-0.799-1.502
		c-0.909-0.999-2.163-1.498-3.76-1.498h-4.063v16.07h4.063c1.606,0,2.861-0.496,3.76-1.482c0.526-0.577,0.854-1.36,0.986-2.351
		C105.604,89.81,105.667,88.359,105.667,86.451z"/>
	<path fill="#FFFFFF" d="M135.752,86.588c0,1.748-0.03,3.085-0.095,4.01c-0.067,0.922-0.255,1.791-0.557,2.605
		c-0.303,0.814-0.789,1.569-1.456,2.264c-1.585,1.574-3.532,2.363-5.837,2.363c-2.303,0-4.238-0.784-5.807-2.351
		c-0.688-0.707-1.182-1.461-1.485-2.259c-0.304-0.799-0.49-1.664-0.562-2.6c-0.07-0.935-0.104-2.277-0.104-4.025
		c0-1.344,0.019-2.41,0.054-3.199c0.037-0.789,0.116-1.511,0.243-2.168c0.128-0.657,0.334-1.271,0.622-1.842
		c0.288-0.572,0.696-1.129,1.232-1.675c1.568-1.567,3.504-2.351,5.807-2.351c2.305,0,4.252,0.783,5.837,2.348
		c0.678,0.707,1.168,1.462,1.467,2.266c0.297,0.805,0.479,1.671,0.546,2.602C135.722,83.504,135.752,84.843,135.752,86.588z
		 M132.401,86.596c0-2.201-0.079-3.748-0.247-4.646c-0.167-0.897-0.521-1.633-1.056-2.209c-0.385-0.414-0.87-0.742-1.46-0.99
		c-0.594-0.248-1.204-0.371-1.831-0.371c-0.638,0-1.248,0.123-1.84,0.371c-0.59,0.248-1.08,0.576-1.465,0.99
		c-0.536,0.596-0.884,1.336-1.052,2.224c-0.165,0.89-0.251,2.431-0.251,4.632c0,1.17,0.019,2.104,0.056,2.808
		c0.033,0.698,0.101,1.313,0.202,1.839c0.101,0.523,0.223,0.933,0.362,1.226c0.142,0.293,0.369,0.618,0.683,0.983
		c0.404,0.424,0.9,0.756,1.48,0.998c0.581,0.242,1.187,0.363,1.824,0.363c1.335,0,2.431-0.455,3.291-1.361
		c0.364-0.395,0.641-0.842,0.828-1.348c0.187-0.505,0.313-1.189,0.379-2.06C132.371,89.178,132.401,88.028,132.401,86.596z"/>
	<path fill="#FFFFFF" d="M163.018,91.401c0,1.334-0.28,2.469-0.84,3.403c-0.566,0.936-1.354,1.643-2.37,2.123
		c-1.016,0.48-2.179,0.72-3.481,0.72h-8.955V75.544h8.623c1.333,0,2.508,0.244,3.525,0.735c1.017,0.49,1.795,1.192,2.34,2.105
		c0.541,0.915,0.809,1.984,0.809,3.207c0,0.759-0.136,1.458-0.414,2.1c-0.278,0.643-0.646,1.184-1.102,1.623
		c-0.455,0.439-0.945,0.761-1.472,0.963c0.951,0.363,1.743,0.985,2.381,1.865C162.699,89.021,163.018,90.107,163.018,91.401z
		 M159.318,81.723c0-0.658-0.148-1.225-0.445-1.705c-0.298-0.477-0.718-0.838-1.258-1.086c-0.543-0.248-1.178-0.371-1.905-0.371
		h-4.958v6.322h4.958c1.111,0,1.99-0.275,2.638-0.832S159.318,82.719,159.318,81.723z M159.652,91.25
		c0-0.678-0.142-1.264-0.425-1.758c-0.283-0.496-0.698-0.885-1.249-1.169c-0.552-0.283-1.202-0.424-1.951-0.424h-5.275v6.731h5.275
		c0.759,0,1.409-0.144,1.956-0.432c0.546-0.289,0.961-0.686,1.244-1.191C159.511,92.504,159.652,91.917,159.652,91.25z"/>
	<path fill="#FFFFFF" d="M190.934,97.647h-3.574l-1.516-4.441h-8.729l-1.511,4.441h-3.577l8.106-22.104h2.697L190.934,97.647z
		 M184.904,90.355l-3.345-9.81l-3.442,9.81H184.904z"/>
</g>
</svg>
