<?xml version="1.0" encoding="utf-8"?>
<!-- Generator: Adobe Illustrator 16.0.3, SVG Export Plug-In . SVG Version: 6.00 Build 0)  -->
<!DOCTYPE svg PUBLIC "-//W3C//DTD SVG 1.1//EN" "http://www.w3.org/Graphics/SVG/1.1/DTD/svg11.dtd">
<svg version="1.1" id="Layer_1" xmlns="http://www.w3.org/2000/svg" xmlns:xlink="http://www.w3.org/1999/xlink" x="0px" y="0px"
	 width="240px" height="99px" viewBox="0 0 240 99" enable-background="new 0 0 240 99" xml:space="preserve">
<path fill="#4F6163" d="M14.553,15.451h10.383v68.499H14.553V15.451z"/>
<path fill="#4F6163" d="M119.395,15.451h23.955c9.044,0,16.457,4.039,20.872,11.542c3.376,5.778,3.655,8.372,3.655,22.709
	c0,15.389-0.771,18.089-3.846,22.902c-4.03,6.35-11.16,11.346-21.361,11.346h-23.275V15.451z M129.787,74.139h12.406
	c5.857,0,10.002-2.021,12.699-5.963c2.311-3.467,2.602-5.396,2.602-18.084c0-12.324-0.291-15.303-3.083-19.06
	c-3.178-4.33-6.639-5.765-12.218-5.765h-12.406V74.139z"/>
<path fill="#4F6163" d="M217.476,68.652h-25.977l-5.292,15.297h-10.976l24.928-68.499h8.652l24.923,68.499h-10.967L217.476,68.652z
	 M214.496,59.42l-9.91-29.928h-0.202l-9.901,29.928H214.496z"/>
<g>
	<path fill="#00B2C1" d="M73.345,29.149c-0.599,0.589-1.565,0.589-2.156,0l-6.166-6.179c-0.599-0.589-0.599-1.559,0-2.153
		l6.166-6.175c0.591-0.582,1.557-0.582,2.156,0l6.174,6.175c0.59,0.595,0.59,1.564,0,2.153L73.345,29.149z"/>
</g>
<g>
	<path fill="#00B2C1" d="M41.951,32.153c0,0.122,0,0.251,0,0.365V32.153z"/>
	<path fill="#00B2C1" d="M50.536,83.956c0.24,0,0.455,0.004,0.661,0H50.536z"/>
	<path fill="#00B2C1" d="M92.338,23.598c0.027-0.024,0.047-0.041,0.076-0.044C92.385,23.557,92.365,23.586,92.338,23.598z"/>
	<path fill="#00B2C1" d="M92.883,23.39L92.883,23.39L92.883,23.39z"/>
	<path fill="#00B2C1" d="M51.804,83.877c-0.103,0.021-0.198,0.051-0.299,0.057C51.605,83.922,51.701,83.898,51.804,83.877z"/>
	<path fill="#00B2C1" d="M41.986,32.967c0.006,0.038,0.021,0.061,0.031,0.093C42.007,33.028,41.992,33.005,41.986,32.967z"/>
	<path fill="#00B2C1" d="M41.951,74.652c0,0.21,0,0.422,0,0.669V74.652z"/>
	<path fill="#00B2C1" d="M92.582,83.849c0.161,0.05,0.336,0.085,0.5,0.101C92.912,83.949,92.743,83.91,92.582,83.849z"/>
	<path fill="#00B2C1" d="M52.448,83.524c-0.111,0.116-0.262,0.206-0.4,0.278C52.184,83.743,52.32,83.641,52.448,83.524z"/>
	<path fill="#00B2C1" d="M102.574,74.564v0.806C102.574,75.068,102.584,74.805,102.574,74.564z"/>
	<path fill="#00B2C1" d="M93.99,83.956h-0.76C93.463,83.96,93.705,83.956,93.99,83.956z"/>
	<path fill="#00B2C1" d="M91.619,82.46v-7.957c0-0.819,0.682-1.496,1.503-1.496h7.948c0.626,0,1.159,0.38,1.386,0.919
		c-0.074-0.18-0.173-0.354-0.351-0.525L83.438,54.729c-0.592-0.594-0.592-1.562,0-2.158l18.526-18.528
		c0.042-0.049,0.066-0.101,0.107-0.146c-0.264,0.235-0.607,0.399-0.987,0.399h-7.962c-0.822,0-1.503-0.679-1.503-1.496v-7.958
		c0-0.397,0.167-0.753,0.421-1.026c-0.031,0.028-0.062,0.039-0.091,0.066L73.345,42.471c-0.601,0.592-1.565,0.592-2.156,0
		L52.568,23.895c-0.021-0.013-0.037-0.018-0.054-0.034c0.235,0.263,0.392,0.6,0.392,0.981V32.8c0,0.817-0.681,1.496-1.503,1.496
		h-7.95c-0.39,0-0.734-0.164-1.005-0.41c0.008,0.014,0.014,0.026,0.033,0.043L61.083,52.57c0.597,0.596,0.597,1.564,0,2.158
		L42.438,73.372c-0.169,0.174-0.272,0.351-0.347,0.526c0.239-0.521,0.751-0.892,1.363-0.892h7.95c0.822,0,1.503,0.677,1.503,1.496
		v7.957c0,0.414-0.177,0.784-0.44,1.06c0.029-0.03,0.054-0.034,0.077-0.061l18.646-18.627c0.591-0.602,1.555-0.602,2.156,0
		l18.654,18.643c0.184,0.179,0.357,0.28,0.533,0.353C91.999,83.598,91.619,83.07,91.619,82.46z"/>
	<path fill="#00B2C1" d="M102.456,73.926c0.074,0.174,0.109,0.364,0.109,0.565C102.555,74.29,102.524,74.105,102.456,73.926z"/>
	<path fill="#00B2C1" d="M42.053,74.01c-0.036,0.141-0.073,0.287-0.092,0.438C41.976,74.297,42.007,74.15,42.053,74.01z"/>
</g>
<g>
	<path fill="#515E67" d="M51.403,23.345h-7.95c-0.824,0-1.502,0.672-1.502,1.497V32.8c0,0.817,0.678,1.496,1.502,1.496h7.95
		c0.822,0,1.503-0.679,1.503-1.496v-7.958C52.906,24.017,52.225,23.345,51.403,23.345z"/>
	<path fill="#515E67" d="M101.07,23.345h-7.948c-0.822,0-1.503,0.672-1.503,1.497V32.8c0,0.817,0.682,1.496,1.503,1.496h7.962
		c0.824,0,1.489-0.679,1.489-1.496v-7.958C102.565,24.017,101.894,23.345,101.07,23.345z"/>
	<path fill="#515E67" d="M51.403,73.007h-7.95c-0.824,0-1.502,0.677-1.502,1.496v7.957c0,0.823,0.678,1.496,1.502,1.496h7.95
		c0.822,0,1.503-0.673,1.503-1.496v-7.957C52.906,73.684,52.225,73.007,51.403,73.007z"/>
	<path fill="#515E67" d="M101.07,73.007h-7.948c-0.822,0-1.503,0.677-1.503,1.496v7.957c0,0.823,0.682,1.496,1.503,1.496h7.962
		c0.824,0,1.489-0.673,1.489-1.496v-7.957C102.565,73.684,101.894,73.007,101.07,73.007z"/>
</g>
</svg>
